<?xml version="1.0" encoding="UTF-8" standalone="no"?>
<svg
   viewBox="0 0 404.65729 106.92345"
   xmlns="http://www.w3.org/2000/svg"
   width="404.65729"
   height="106.92345">
  <defs>
    <linearGradient
       id="driveText"
       x1="260.67246"
       y1="50.53098"
       x2="377.14927"
       y2="50.53098"
       gradientTransform="scale(1.7999827,0.55556089)"
       gradientUnits="userSpaceOnUse">
      <stop offset="0%" stop-color="#2563EB" />
      <stop offset="100%" stop-color="#1D4ED8" />
    </linearGradient>
  </defs>
  <g id="g2" transform="translate(-274.20496,-28.073036)">
    <g
       id="text20"
       style="font-weight:600;font-size:86px;font-family:'Segoe UI', 'Helvetica Neue', Arial, sans-serif;letter-spacing:-1;fill:#0f172a"
       aria-label="omnidrive">
      <path
         d="m 296.04089,92.741005 q -9.95214,0 -15.91504,-6.004883 -5.92089,-6.046875 -5.92089,-15.999023 0,-10.833985 6.17285,-16.922852 6.21484,-6.088867 16.71289,-6.088867 10.07812,0 15.70508,5.920898 5.62695,5.920899 5.62695,16.418946 0,10.288086 -6.08887,16.502929 -6.04687,6.172852 -16.29297,6.172852 z m 0.46192,-37.24707 q -5.71094,0 -9.02832,3.989257 -3.31739,3.989258 -3.31739,11.001954 0,6.760742 3.35938,10.666015 3.35937,3.863281 8.98633,3.863281 5.75293,0 8.81836,-3.821289 3.10742,-3.821289 3.10742,-10.875976 0,-7.09668 -3.10742,-10.959961 -3.06543,-3.863281 -8.81836,-3.863281 z m 95.12011,36.239257 h -9.74218 v -23.43164 q 0,-6.760742 -1.93164,-9.78418 -1.88965,-3.023437 -6.42481,-3.023437 -3.82129,0 -6.50879,3.821289 -2.6455,3.821289 -2.6455,9.154297 v 23.263671 h -9.78418 V 67.5037 q 0,-12.009765 -8.48243,-12.009765 -3.94726,0 -6.50879,3.611328 -2.51953,3.611328 -2.51953,9.364258 v 23.263671 h -9.74218 v -43 h 9.74218 v 6.802735 h 0.16797 q 4.66113,-7.810547 13.56348,-7.810547 4.45117,0 7.76855,2.477539 3.35938,2.435547 4.57715,6.424805 4.78711,-8.902344 14.27735,-8.902344 14.19335,0 14.19335,17.510742 z m 49.18067,0 H 431.0614 V 67.5037 q 0,-12.051758 -8.52441,-12.051758 -4.45117,0 -7.34864,3.359375 -2.89746,3.317383 -2.89746,8.398438 v 24.523437 h -9.78418 v -43 h 9.78418 v 7.138672 h 0.16797 q 4.8291,-8.146484 13.94141,-8.146484 7.01269,0 10.70801,4.577148 3.69531,4.535157 3.69531,13.143555 z m 15.79687,-52.02832 q -2.39355,0 -4.11523,-1.553711 -1.67969,-1.553711 -1.67969,-3.947265 0,-2.393555 1.67969,-3.989258 1.72168,-1.595703 4.11523,-1.595703 2.47754,0 4.19922,1.595703 1.72168,1.595703 1.72168,3.989258 0,2.267578 -1.72168,3.905273 -1.72168,1.595703 -4.19922,1.595703 z m 4.82911,52.02832 h -9.74219 v -43 h 9.74219 z" />
      <path
         fill="url(#driveText)"
         d="m 499.81824,91.733192 v -4.99707 h -0.16797 q -2.1416,2.813477 -5.58496,4.451172 -3.44336,1.595703 -6.80274,1.595703 -5.50097,0 -9.70019,-2.6875 -4.19922,-2.729492 -6.29883,-7.600586 -2.05762,-4.871094 -2.05762,-11.505859 0,-6.844727 2.47754,-12.135742 2.47754,-5.291016 6.9707,-8.230469 4.49317,-2.939453 10.07813,-2.939453 2.64551,0 4.87109,0.755859 2.26758,0.75586 3.90528,2.057617 1.67968,1.259766 2.1416,2.519532 h 0.16797 v -24.94336 h 17.88867 v 63.660156 z m 0.37793,-22.801757 q 0,-3.863282 -1.72168,-6.004883 -1.67969,-2.141602 -4.57715,-2.141602 -2.89746,0 -4.74512,2.6875 -1.80566,2.645508 -1.80566,7.09668 0,9.112305 6.29883,9.112305 2.98144,0 4.74511,-2.435547 1.80567,-2.477539 1.80567,-7.180664 z m 57.45312,-4.871094 q -1.00781,-0.461914 -2.72949,-0.839844 -1.72168,-0.37793 -2.85547,-0.37793 -8.86035,0 -8.86035,10.246094 v 18.644531 h -17.88867 v -43 h 17.88867 v 7.558594 h 0.16797 q 1.63769,-4.073242 4.66113,-6.172851 3.02344,-2.141602 7.05469,-2.141602 1.46973,0 2.56152,0.503906 z m 23.10352,-26.916992 q 0,3.779297 -2.77149,6.130859 -2.72949,2.351563 -7.22265,2.351563 -4.36719,0 -7.18067,-2.435547 -2.77148,-2.435547 -2.77148,-6.046875 0,-3.695313 2.6875,-5.962891 2.72949,-2.30957 7.26465,-2.30957 4.49316,0 7.22265,2.30957 2.77149,2.267578 2.77149,5.962891 z m -18.93848,54.589843 v -43 H 579.703 v 43 z m 56.82324,0 h -21.24804 l -14.36133,-43 h 18.64453 l 5.24902,23.473633 q 1.25977,5.668946 1.38575,8.524414 h 0.25195 q 0.084,-0.839843 0.20996,-1.721679 0.16797,-0.881836 6.25684,-30.276368 h 18.56054 z m 33.64356,-16.418945 q 0.46191,2.771485 3.1914,4.367188 2.7295,1.553711 7.22266,1.553711 6.25684,0 11.8418,-2.393555 v 11.337891 q -6.50879,2.603515 -15.78907,2.603515 -11.2539,0 -17.51074,-5.75293 -6.25683,-5.752929 -6.25683,-15.831054 0,-6.928711 2.72949,-12.219727 2.77148,-5.291015 8.14648,-8.272461 5.417,-3.023437 11.92578,-3.023437 6.67676,0 11.42188,2.603515 4.74512,2.603516 7.18066,7.306641 2.47754,4.703125 2.47754,11.001953 v 6.71875 z m 10.75,-9.364258 q 0,-7.432617 -5.33301,-7.432617 -2.22559,0 -3.7373,2.057617 -1.51172,2.015625 -1.76368,5.375 z" />
    </g>
    <path
       id="text21"
       aria-label="ALL YOUR DRIVES, ONE PLACE"
       style="font-weight:600;font-size:24.6624px;font-family:'Segoe UI', 'Helvetica Neue', Arial, sans-serif;letter-spacing:2.52419;fill:#64748b;stroke-width:1.02761"
       d="m 290.31741,131.86552 h -3.14301 l -1.55345,-4.39539 h -6.79179 l -1.49323,4.39539 h -3.13097 l 6.46666,-17.26849 h 3.2273 z m -5.45511,-6.73158 -2.3964,-6.88813 q -0.10838,-0.33718 -0.2288,-1.0838 h -0.0482 q -0.10838,0.68641 -0.24084,1.0838 l -2.37231,6.88813 z m 19.91311,6.73158 h -9.5615 v -17.26849 h 2.86604 v 14.84801 h 6.69546 z m 14.57842,0 h -9.5615 v -17.26849 h 2.86604 v 14.84801 h 6.69546 z m 26.35101,-17.26849 -5.65983,10.99451 v 6.27398 h -2.86604 v -6.21376 l -5.51532,-11.05473 h 3.26343 l 3.3959,7.40594 q 0.0602,0.13247 0.36126,0.9995 h 0.0361 q 0.10838,-0.38535 0.39739,-0.9995 l 3.55245,-7.40594 z m 11.26681,17.55751 q -3.73308,0 -5.98497,-2.42048 -2.23984,-2.42048 -2.23984,-6.29807 0,-4.16659 2.28801,-6.64728 2.28802,-2.48069 6.21377,-2.48069 3.63674,0 5.8525,2.40843 2.22781,2.40844 2.22781,6.29807 0,4.2268 -2.27597,6.68341 -2.27598,2.45661 -6.08131,2.45661 z m 0.13247,-15.32971 q -2.37232,0 -3.86555,1.7702 -1.48119,1.77021 -1.48119,4.66033 0,2.87808 1.44507,4.63624 1.44506,1.75816 3.78124,1.75816 2.48069,0 3.91371,-1.67386 1.43302,-1.67387 1.43302,-4.68441 0,-3.09485 -1.39689,-4.78075 -1.38485,-1.68591 -3.82941,-1.68591 z m 27.19863,8.05623 q 0,7.27348 -6.88813,7.27348 -6.59912,0 -6.59912,-6.99651 v -10.561 h 2.86604 v 9.97093 q 0,5.0818 3.94984,5.0818 3.80533,0 3.80533,-4.90117 v -10.15156 h 2.86604 z m 19.92515,6.98446 h -3.34773 l -2.75766,-4.6242 q -0.37331,-0.63823 -0.73458,-1.08379 -0.34922,-0.45761 -0.72253,-0.74662 -0.36126,-0.28901 -0.79478,-0.42147 -0.43352,-0.13247 -0.97542,-0.13247 h -1.15605 v 7.00855 h -2.854 v -17.26849 h 5.68391 q 1.21627,0 2.23985,0.28901 1.02359,0.28901 1.78224,0.87908 0.75866,0.57803 1.18014,1.4571 0.43352,0.86704 0.43352,2.03513 0,0.91521 -0.27697,1.68591 -0.26493,0.75866 -0.7707,1.36077 -0.49373,0.59006 -1.20422,1.01154 -0.69845,0.42148 -1.57753,0.65028 v 0.0482 q 0.46965,0.26493 0.81887,0.59007 0.34922,0.31309 0.66232,0.65027 0.3131,0.33718 0.61415,0.7707 0.3131,0.42148 0.68641,0.98746 z m -10.48875,-14.94435 v 5.61166 h 2.38435 q 0.66232,0 1.21626,-0.20472 0.56599,-0.20472 0.97542,-0.59007 0.40944,-0.38535 0.63824,-0.93929 0.2288,-0.55394 0.2288,-1.24034 0,-1.24035 -0.78274,-1.93879 -0.78275,-0.69845 -2.25189,-0.69845 z m 24.32793,14.94435 v -17.26849 h 4.98546 q 9.54945,0 9.54945,8.41749 0,3.998 -2.64928,6.43052 -2.64928,2.42048 -7.10489,2.42048 z m 2.85399,-14.83597 v 12.41549 h 2.28802 q 3.02259,0 4.69645,-1.66182 1.68591,-1.66182 1.68591,-4.69645 0,-6.05722 -6.27398,-6.05722 z m 30.70291,14.83597 h -3.34773 l -2.75766,-4.6242 q -0.37331,-0.63823 -0.73458,-1.08379 -0.34922,-0.45761 -0.72253,-0.74662 -0.36126,-0.28901 -0.79478,-0.42147 -0.43352,-0.13247 -0.97542,-0.13247 h -1.15605 v 7.00855 h -2.854 v -17.26849 h 5.68391 q 1.21627,0 2.23985,0.28901 1.02359,0.28901 1.78224,0.87908 0.75866,0.57803 1.18014,1.4571 0.43352,0.86704 0.43352,2.03513 0,0.91521 -0.27697,1.68591 -0.26493,0.75866 -0.7707,1.36077 -0.49373,0.59006 -1.20422,1.01154 -0.69845,0.42148 -1.57753,0.65028 v 0.0482 q 0.46965,0.26493 0.81887,0.59007 0.34922,0.31309 0.66232,0.65027 0.3131,0.33718 0.61415,0.7707 0.3131,0.42148 0.68641,0.98746 z m -10.48875,-14.94435 v 5.61166 h 2.38435 q 0.66232,0 1.21626,-0.20472 0.56599,-0.20472 0.97542,-0.59007 0.40944,-0.38535 0.63824,-0.93929 0.2288,-0.55394 0.2288,-1.24034 0,-1.24035 -0.78274,-1.93879 -0.78275,-0.69845 -2.25189,-0.69845 z m 17.96229,14.94435 h -2.95034 v -17.26849 h 2.95034 z m 20.31048,-17.26849 -6.20172,17.26849 h -3.20322 l -6.09335,-17.26849 h 3.13097 l 4.26293,13.1019 q 0.20472,0.62619 0.3131,1.4571 h 0.0482 q 0.0843,-0.6864 0.34922,-1.48119 l 4.35927,-13.07781 z m 14.50617,17.26849 h -9.69396 v -17.26849 h 9.30861 v 2.43252 h -6.44257 v 4.88913 h 5.9368 v 2.42048 h -5.9368 v 5.10588 h 6.82792 z m 4.80017,-0.6864 v -2.95034 q 0.39739,0.36127 0.93929,0.65028 0.55394,0.28901 1.16809,0.49373 0.61415,0.19268 1.2283,0.30106 0.61416,0.10838 1.13197,0.10838 1.80633,0 2.68541,-0.60211 0.89112,-0.60211 0.89112,-1.74612 0,-0.61415 -0.30106,-1.05971 -0.28901,-0.45761 -0.81886,-0.83091 -0.52986,-0.37331 -1.25239,-0.71049 -0.71049,-0.34923 -1.52936,-0.72253 -0.87908,-0.46965 -1.63774,-0.95134 -0.75866,-0.48168 -1.32464,-1.05971 -0.55394,-0.59007 -0.87908,-1.32464 -0.31309,-0.73457 -0.31309,-1.72203 0,-1.21626 0.54189,-2.10739 0.55394,-0.90316 1.44507,-1.48118 0.90316,-0.59007 2.04717,-0.86704 1.14401,-0.28901 2.33618,-0.28901 2.70949,0 3.94984,0.61415 v 2.82991 q -1.46915,-1.05971 -3.78125,-1.05971 -0.63823,0 -1.27647,0.12042 -0.62619,0.12042 -1.13196,0.39739 -0.49373,0.27697 -0.80683,0.71049 -0.3131,0.43352 -0.3131,1.04767 0,0.57803 0.24085,0.9995 0.24084,0.42148 0.69844,0.7707 0.46965,0.34923 1.13197,0.68641 0.67436,0.32514 1.55344,0.71049 0.90316,0.46964 1.69795,0.98746 0.80683,0.51781 1.40894,1.144 0.61415,0.6262 0.96337,1.3969 0.36127,0.75866 0.36127,1.73407 0,1.3126 -0.52986,2.21577 -0.52986,0.90316 -1.43302,1.46914 -0.89112,0.56598 -2.05921,0.81887 -1.1681,0.25289 -2.46865,0.25289 -0.43352,0 -1.07176,-0.0723 -0.62619,-0.0602 -1.28851,-0.19267 -0.66232,-0.12042 -1.25239,-0.30106 -0.59007,-0.18063 -0.95133,-0.40943 z m 19.04607,-2.19168 -1.86654,6.00905 h -2.09534 l 1.32464,-6.00905 z m 22.59386,3.1671 q -3.73308,0 -5.98497,-2.42048 -2.23985,-2.42048 -2.23985,-6.29807 0,-4.16659 2.28802,-6.64728 2.28801,-2.48069 6.21377,-2.48069 3.63674,0 5.8525,2.40843 2.2278,2.40844 2.2278,6.29807 0,4.2268 -2.27597,6.68341 -2.27597,2.45661 -6.0813,2.45661 z m 0.13246,-15.32971 q -2.37231,0 -3.86554,1.7702 -1.48119,1.77021 -1.48119,4.66033 0,2.87808 1.44506,4.63624 1.44506,1.75816 3.78125,1.75816 2.48069,0 3.91371,-1.67386 1.43302,-1.67387 1.43302,-4.68441 0,-3.09485 -1.3969,-4.78075 -1.38485,-1.68591 -3.82941,-1.68591 z m 28.5594,15.04069 h -3.13097 l -8.2489,-12.69246 q -0.31309,-0.48169 -0.51781,-0.9995 h -0.0723 q 0.0963,0.55394 0.0963,2.37231 v 11.31965 h -2.7697 v -17.26849 h 3.33569 l 7.97192,12.39141 q 0.50578,0.7707 0.65028,1.05971 h 0.0482 q -0.12042,-0.6864 -0.12042,-2.32414 v -11.12698 h 2.75766 z m 16.4931,0 h -9.69396 v -17.26849 h 9.30861 v 2.43252 h -6.44257 v 4.88913 h 5.9368 v 2.42048 h -5.9368 v 5.10588 h 6.82792 z m 17.75291,-6.26193 v 6.26193 h -2.854 v -17.26849 h 5.23835 q 2.97442,0 4.61216,1.38485 1.63773,1.38485 1.63773,3.90167 0,2.51682 -1.70999,4.11843 -1.70999,1.60161 -4.6242,1.60161 z m 0,-8.64629 v 6.3101 h 1.85449 q 1.84246,0 2.80583,-0.85499 0.96338,-0.855 0.96338,-2.40844 0,-3.04667 -3.5404,-3.04667 z m 23.64619,14.90822 h -9.5615 v -17.26849 h 2.86604 v 14.84801 h 6.69546 z m 19.84084,0 h -3.14301 l -1.55344,-4.39539 h -6.7918 l -1.49323,4.39539 h -3.13097 l 6.46666,-17.26849 h 3.2273 z m -5.45511,-6.73158 -2.3964,-6.88813 q -0.10838,-0.33718 -0.2288,-1.0838 h -0.0482 q -0.10838,0.68641 -0.24084,1.0838 l -2.37231,6.88813 z m 22.04457,6.00905 q -1.95083,1.01155 -4.853,1.01155 -3.75716,0 -6.02109,-2.37231 -2.26394,-2.37231 -2.26394,-6.22581 0,-4.14252 2.54091,-6.69546 2.55294,-2.55294 6.44257,-2.55294 2.50477,0 4.15455,0.71048 v 2.84196 q -1.74612,-1.03563 -3.8535,-1.03563 -2.80583,0 -4.55195,1.79429 -1.73407,1.79428 -1.73407,4.79279 0,2.854 1.62569,4.55195 1.6257,1.6859 4.27498,1.6859 2.44457,0 4.23885,-1.15605 z m 15.49363,0.72253 h -9.69396 v -17.26849 h 9.30861 v 2.43252 h -6.44257 v 4.88913 h 5.9368 v 2.42048 h -5.9368 v 5.10588 h 6.82792 z" />
  </g>
</svg>
