<?xml version="1.0" encoding="UTF-8" standalone="no"?>
<svg
   viewBox="0 0 244.25501 162.9001"
   version="1.1"
   id="svg21"
   xml:space="preserve"
   width="244.255"
   height="162.9001"
   xmlns:xlink="http://www.w3.org/1999/xlink"
   xmlns="http://www.w3.org/2000/svg">
  <defs>
    <linearGradient
       id="bg-7"
       x1="1.3402966"
       y1="40.106277"
       x2="413.46219"
       y2="452.22818"
       gradientTransform="matrix(1.2245067,0,0,0.8166554,-194.13726,-165.25039)"
       gradientUnits="userSpaceOnUse">
      <stop offset="0%" stop-color="#60A5FA" id="stop1-9" />
      <stop offset="45%" stop-color="#2563EB" id="stop2-5" />
      <stop offset="80%" stop-color="#1D4ED8" id="stop3-4" />
      <stop offset="100%" stop-color="#172554" id="stop4-3" />
    </linearGradient>
    <linearGradient
       xlink:href="#linearGradient1"
       id="linearGradient16"
       x1="195.60077"
       y1="70.981743"
       x2="311.88342"
       y2="358.79138"
       gradientUnits="userSpaceOnUse"
       gradientTransform="translate(-192.49606,-132.49738)" />
    <linearGradient
       id="linearGradient1">
      <stop
         style="stop-color:#f9f9f9;stop-opacity:1;"
         offset="0.41709843"
         id="stop15-1" />
      <stop
         style="stop-color:#f9f9f9;stop-opacity:0.40088105;"
         offset="1"
         id="stop16-2" />
    </linearGradient>
  </defs>
  <g
     id="g6"
     transform="matrix(0.48401253,0,0,0.48401253,93.170504,64.13038)"
     style="stroke:none">
    <path
       style="font-variation-settings:normal;vector-effect:none;fill:url(#bg-7);fill-opacity:1;stroke:none;stroke-width:1;stroke-linecap:butt;stroke-linejoin:miter;stroke-miterlimit:4;stroke-dasharray:none;stroke-dashoffset:0;stroke-opacity:1;-inkscape-stroke:none;stop-color:#000000"
       d="m -103.28472,203.86042 c -34.37264,-2.4274 -64.66146,-22.54225 -79.4796,-52.78254 -5.45017,-11.12247 -8.58471,-22.63793 -9.56926,-35.15482 -0.32069,-4.07692 -0.1396,-15.23074 0.30645,-18.87559 1.45962,-11.92698 4.53407,-22.50957 9.48907,-32.66243 3.52768,-7.22826 7.61451,-13.55055 12.89177,-19.94343 2.42509,-2.93778 9.40507,-9.95535 12.22941,-12.29529 11.3375,-9.39304 24.03541,-15.9228 37.85182,-19.46486 1.90276,-0.48781 3.44566,-0.95906 3.42866,-1.04725 -0.017,-0.0882 -0.21983,-1.07819 -0.45074,-2.20002 -3.02565,-14.69956 -1.09181,-29.55698 5.57516,-42.832989 5.21169,-10.37811 13.085658,-19.26797 22.89235,-25.84587 9.52086,-6.386193 19.88603,-10.172043 31.84441,-11.631073 3.33558,-0.40697 13.10064,-0.34691 16.48385,0.10137 11.32799,1.50103 21.82296,5.37677 30.77083,11.363523 0.80643,0.53955 1.53904,0.98007 1.62804,0.97893 0.0891,-9.1e-4 0.96094,-1.58084 1.93765,-3.51046 12.80437,-25.296613 34.80413,-46.508731 60.70001,-58.526791 14.60876,-6.77981 29.52863,-10.6269 45.89021,-11.83279 3.55825,-0.26226 14.35245,-0.26011 18.01014,0.004 17.68277,1.27476 33.89223,5.73553 49.53991,13.63316 34.8291,17.57878 60.16487,50.260448 68.30759,88.11281 2.05598,9.55747 2.93232,17.98609 2.93232,28.20304 v 5.31307 l 1.17015,0.25945 c 0.64358,0.14268 2.58959,0.71717 4.32447,1.27664 14.04361,4.52884 25.9279,11.96258 36.73737,22.97959 5.96909,6.08371 10.1526,11.45052 14.37606,18.44231 8.18433,13.54887 13.0422,27.98778 15.14688,45.02066 0.44733,3.6201 0.63536,17.49714 0.29482,21.75767 -2.8502,35.65903 -22.22399,66.27614 -51.59756,81.54156 -10.69607,5.55875 -21.94615,8.72252 -34.29049,9.64327 -3.40909,0.25429 -325.763686,0.23037 -329.37175,-0.0244 z"
       id="path1-3" />
    <path
       style="fill:url(#linearGradient16);stroke:none;stroke-width:9;stroke-dasharray:none"
       d="m -38.99241,9.7455 c -38.95856,11.1948 -62.21703,50.86506 -52.92754,90.27461 7.83947,33.25801 37.58437,57.26343 71.54371,57.73887 23.71864,0.33207 39.95536,-6.89726 60.8474,-27.09201 L 54.08846,117.50413 26.9469,90.26522 C 12.01905,75.28381 -0.40857,63.24023 -0.67006,63.50172 c -0.26148,0.26147 3.35785,8.58574 8.04293,18.49835 l 8.51836,18.02294 -6.00854,6.45216 c -22.86664,24.55495 -61.99398,12.08924 -64.96703,-20.69805 -2.01058,-22.17306 14.24868,-40.04024 36.43688,-40.04024 6.10421,0 11.054,0.94549 15.2327,2.90972 4.26805,2.00622 20.60437,17.24972 52.61089,49.09147 49.00201,48.74974 53.09104,52.03845 71.38287,57.41125 12.06018,3.5424 32.92919,3.0196 44.65192,-1.1186 C 218.22551,135.32328 233.82625,68.3471 194.29982,29.23391 170.68557,5.86657 136.90307,0.47115 106.48662,15.20923 101.53558,17.60822 93.37029,24.18113 83.85936,33.4238 L 68.97853,47.8849 96.44971,75.09315 c 15.10915,14.96454 27.12415,26.24165 26.70002,25.06024 -0.42413,-1.18142 -4.33634,-9.68712 -8.6938,-18.90155 l -7.92266,-16.75354 8.26264,-7.64973 c 9.1664,-8.48648 15.72985,-11.12836 27.52752,-11.08025 26.18913,0.10683 43.49704,28.13213 32.26709,52.24748 -6.19924,13.31231 -18.37592,21.12666 -33.14924,21.27344 C 125.6932,119.44569 123.60925,117.86312 71.3253,66.04299 20.92202,16.08681 18.35753,14.05314 -0.27092,9.26587 -11.33541,6.42245 -28.15295,6.63076 -38.99241,9.7455 Z"
       id="path5-3" />
  </g>
</svg>
